#!OML:ASF E:\VariousWalksJay\Project 1\Capture day 1\Session 1\Actor2.ASF
:FULLY-SPECIFIED
:DEGREES
687
root 3.34739 16.0867 26.9636 185.679 -0.251893 -170.104
lowerback 15.397 -6.4698 -0.200856
upperback 16.0386 -5.28152 -0.681667
thorax 8.74864 -1.30028 -0.022395
lowerneck 4.26398 -4.98637 -3.86034
upperneck -5.41044 -5.61111 17.61
head -1.65673 -3.04849 6.09911
rclavicle -3.49861e-014 -4.92986e-014
rhumerus -9.22048 11.0726 -65.4124
rradius 77.8064
rwrist -2.48178
rhand -10.4773 -10.8298
rfingers 7.12502
rthumb 15.5239 -40.2267
lclavicle -3.49861e-014 -4.92986e-014
lhumerus 8.01115 -2.90059 55.2475
lradius 65.6039
lwrist 7.13711
lhand -7.16202 -10.5685
lfingers 7.12502
lthumb 18.715 18.5513
rfemur -32.7485 4.56755 22.0264
rtibia 53.8313
rfoot -21.7462 7.29894
rtoes -7.3768
lfemur -30.265 20.0465 -8.02787
ltibia 55.8269
lfoot -27.5265 12.8862
ltoes -12.9074
688
root 3.32012 16.0856 26.9575 185.867 -0.161048 -170.143
lowerback 15.4828 -6.42748 -0.0855897
upperback 16.2959 -5.09961 -0.840287
thorax 8.97871 -1.14541 -0.264426
lowerneck 4.15217 -4.84112 -3.81473
upperneck -5.07046 -5.4985 17.1999
head -1.56582 -2.97405 5.95161
rclavicle 7.31528e-014 -2.06736e-014
rhumerus -9.54831 11.1129 -65.3822
rradius 77.8191
rwrist -2.31975
rhand -11.0042 -9.99636
rfingers 7.12502
rthumb 15.0165 -39.4318
lclavicle 7.31528e-014 -2.06736e-014
lhumerus 8.87812 -3.30619 55.5642
lradius 65.7903
lwrist 7.16431
lhand -7.23062 -10.6345
lfingers 7.12502
lthumb 18.649 18.4916
rfemur -32.9552 4.71026 21.8878
rtibia 53.847
rfoot -21.7454 7.12567
rtoes -7.38477
lfemur -30.5363 20.0592 -8.25498
ltibia 55.9935
lfoot -27.6081 13.0013
ltoes -12.4591
689
root 3.29594 16.0832 26.9523 186.043 -0.0432069 -170.187
lowerback 15.669 -6.33049 0.00821941
upperback 16.4827 -4.85977 -0.962109
thorax 9.08039 -0.971545 -0.452982
lowerneck 4.28587 -4.72056 -3.83613
upperneck -4.81983 -5.40652 16.8477
head -1.536 -2.92594 5.84387
rclavicle -3.97569e-014 7.31528e-014
rhumerus -9.84839 11.2176 -65.2292
rradius 77.7674
rwrist -2.2646
rhand -9.8888 -10.6267
rfingers 7.12502
rthumb 16.0907 -39.9787
lclavicle -3.97569e-014 7.31528e-014
lhumerus 9.54297 -3.78904 56.0139
lradius 66.0412
lwrist 7.1937
lhand -7.14296 -10.5509
lfingers 7.12502
lthumb 18.7333 18.567
rfemur -33.1679 4.88321 21.7398
rtibia 53.8803
rfoot -21.6886 7.02603
rtoes -7.17526
lfemur -30.7919 20.13 -8.47168
ltibia 56.1513
lfoot -27.5986 13.1602
ltoes -12.3891
690
root 3.27153 16.0829 26.9457 186.21 0.0335314 -170.283
lowerback 15.7841 -6.3087 0.0559111
upperback 16.7445 -4.70148 -1.12104
thorax 9.31445 -0.831395 -0.655415
lowerneck 4.21985 -4.56464 -3.86926
upperneck -4.47725 -5.2787 16.4763
head -1.44891 -2.84648 5.72412
rclavicle -2.54444e-014 2.54444e-014
rhumerus -9.88607 11.4272 -65.2206
rradius 77.5804
rwrist -2.15434
rhand -10.2394 -10.1268
rfingers 7.12502
rthumb 15.7531 -39.5057
lclavicle -2.54444e-014 2.54444e-014
lhumerus 10.112 -4.07989 56.3651
lradius 66.2633
lwrist 7.31102
lhand -7.03744 -10.5393
lfingers 7.12502
lthumb 18.8348 18.5688
rfemur -33.3703 4.99555 21.5287
rtibia 53.9245
rfoot -21.6555 6.95925
rtoes -7.09426
lfemur -31.0235 20.1233 -8.74412
ltibia 56.2827
lfoot -27.6394 13.2773
ltoes -12.0121
691
root 3.24798 16.0835 26.9388 186.394 0.146881 -170.394
lowerback 15.9452 -6.22588 0.0583151
upperback 16.9621 -4.47558 -1.22403
thorax 9.4842 -0.669562 -0.775307
lowerneck 4.30034 -4.43617 -4.00601
upperneck -4.23964 -5.17786 16.1684
head -1.40893 -2.79187 5.64858
rclavicle -1.90833e-014 1.74931e-014
rhumerus -9.98613 11.6314 -65.128
rradius 77.45
rwrist -2.0473
rhand -10.3973 -9.7675
rfingers 7.12502
rthumb 15.601 -39.1583
lclavicle -1.90833e-014 1.74931e-014
lhumerus 10.5879 -4.51365 56.8006
lradius 66.4226
lwrist 7.45822
lhand -7.14847 -10.6295
lfingers 7.12502
lthumb 18.728 18.489
rfemur -33.6173 5.14957 21.2864
rtibia 53.991
rfoot -21.5509 6.91459
rtoes -7.08411
lfemur -31.2685 20.1606 -9.04159
ltibia 56.4019
lfoot -27.6095 13.4405
ltoes -11.8569
